<svg width="100" height="100" viewBox="0 0 100 100" fill="none" xmlns="http://www.w3.org/2000/svg">
<path fill-rule="evenodd" clip-rule="evenodd" d="M26.9231 0C27.9431 0 28.9214 0.405218 29.6427 1.12651C30.364 1.84781 30.7692 2.82609 30.7692 3.84615V7.69231H69.2308V3.84615C69.2308 2.82609 69.636 1.84781 70.3573 1.12651C71.0786 0.405218 72.0569 0 73.0769 0C74.097 0 75.0753 0.405218 75.7966 1.12651C76.5179 1.84781 76.9231 2.82609 76.9231 3.84615V7.69231H88.4615C91.5217 7.69231 94.4566 8.90796 96.6205 11.0718C98.7843 13.2357 100 16.1706 100 19.2308V88.4615C100 91.5217 98.7843 94.4566 96.6205 96.6205C94.4566 98.7843 91.5217 100 88.4615 100H11.5385C8.47827 100 5.54342 98.7843 3.37954 96.6205C1.21566 94.4566 0 91.5217 0 88.4615V19.2308C0 16.1706 1.21566 13.2357 3.37954 11.0718C5.54342 8.90796 8.47827 7.69231 11.5385 7.69231H23.0769V3.84615C23.0769 2.82609 23.4821 1.84781 24.2034 1.12651C24.9247 0.405218 25.903 0 26.9231 0ZM69.2308 15.3846V19.2308C69.2308 20.2508 69.636 21.2291 70.3573 21.9504C71.0786 22.6717 72.0569 23.0769 73.0769 23.0769C74.097 23.0769 75.0753 22.6717 75.7966 21.9504C76.5179 21.2291 76.9231 20.2508 76.9231 19.2308V15.3846H88.4615C89.4816 15.3846 90.4599 15.7898 91.1812 16.5111C91.9025 17.2324 92.3077 18.2107 92.3077 19.2308V30.7692H7.69231V19.2308C7.69231 18.2107 8.09753 17.2324 8.81882 16.5111C9.54011 15.7898 10.5184 15.3846 11.5385 15.3846H23.0769V19.2308C23.0769 20.2508 23.4821 21.2291 24.2034 21.9504C24.9247 22.6717 25.903 23.0769 26.9231 23.0769C27.9431 23.0769 28.9214 22.6717 29.6427 21.9504C30.364 21.2291 30.7692 20.2508 30.7692 19.2308V15.3846H69.2308ZM7.69231 38.4615V88.4615C7.69231 89.4816 8.09753 90.4599 8.81882 91.1812C9.54011 91.9025 10.5184 92.3077 11.5385 92.3077H88.4615C89.4816 92.3077 90.4599 91.9025 91.1812 91.1812C91.9025 90.4599 92.3077 89.4816 92.3077 88.4615V38.4615H7.69231ZM46.1538 50C46.1538 48.9799 46.5591 48.0017 47.2804 47.2804C48.0017 46.5591 48.9799 46.1538 50 46.1538C51.0201 46.1538 51.9983 46.5591 52.7196 47.2804C53.4409 48.0017 53.8462 48.9799 53.8462 50C53.8462 51.0201 53.4409 51.9983 52.7196 52.7196C51.9983 53.4409 51.0201 53.8462 50 53.8462C48.9799 53.8462 48.0017 53.4409 47.2804 52.7196C46.5591 51.9983 46.1538 51.0201 46.1538 50ZM65.3846 46.1538C64.3646 46.1538 63.3863 46.5591 62.665 47.2804C61.9437 48.0017 61.5385 48.9799 61.5385 50C61.5385 51.0201 61.9437 51.9983 62.665 52.7196C63.3863 53.4409 64.3646 53.8462 65.3846 53.8462C66.4047 53.8462 67.383 53.4409 68.1043 52.7196C68.8256 51.9983 69.2308 51.0201 69.2308 50C69.2308 48.9799 68.8256 48.0017 68.1043 47.2804C67.383 46.5591 66.4047 46.1538 65.3846 46.1538ZM76.9231 50C76.9231 48.9799 77.3283 48.0017 78.0496 47.2804C78.7709 46.5591 79.7492 46.1538 80.7692 46.1538C81.7893 46.1538 82.7676 46.5591 83.4889 47.2804C84.2102 48.0017 84.6154 48.9799 84.6154 50C84.6154 51.0201 84.2102 51.9983 83.4889 52.7196C82.7676 53.4409 81.7893 53.8462 80.7692 53.8462C79.7492 53.8462 78.7709 53.4409 78.0496 52.7196C77.3283 51.9983 76.9231 51.0201 76.9231 50ZM80.7692 61.5385C79.7492 61.5385 78.7709 61.9437 78.0496 62.665C77.3283 63.3863 76.9231 64.3646 76.9231 65.3846C76.9231 66.4047 77.3283 67.383 78.0496 68.1043C78.7709 68.8256 79.7492 69.2308 80.7692 69.2308C81.7893 69.2308 82.7676 68.8256 83.4889 68.1043C84.2102 67.383 84.6154 66.4047 84.6154 65.3846C84.6154 64.3646 84.2102 63.3863 83.4889 62.665C82.7676 61.9437 81.7893 61.5385 80.7692 61.5385ZM61.5385 65.3846C61.5385 64.3646 61.9437 63.3863 62.665 62.665C63.3863 61.9437 64.3646 61.5385 65.3846 61.5385C66.4047 61.5385 67.383 61.9437 68.1043 62.665C68.8256 63.3863 69.2308 64.3646 69.2308 65.3846C69.2308 66.4047 68.8256 67.383 68.1043 68.1043C67.383 68.8256 66.4047 69.2308 65.3846 69.2308C64.3646 69.2308 63.3863 68.8256 62.665 68.1043C61.9437 67.383 61.5385 66.4047 61.5385 65.3846ZM50 61.5385C48.9799 61.5385 48.0017 61.9437 47.2804 62.665C46.5591 63.3863 46.1538 64.3646 46.1538 65.3846C46.1538 66.4047 46.5591 67.383 47.2804 68.1043C48.0017 68.8256 48.9799 69.2308 50 69.2308C51.0201 69.2308 51.9983 68.8256 52.7196 68.1043C53.4409 67.383 53.8462 66.4047 53.8462 65.3846C53.8462 64.3646 53.4409 63.3863 52.7196 62.665C51.9983 61.9437 51.0201 61.5385 50 61.5385ZM30.7692 65.3846C30.7692 64.3646 31.1744 63.3863 31.8957 62.665C32.617 61.9437 33.5953 61.5385 34.6154 61.5385C35.6354 61.5385 36.6137 61.9437 37.335 62.665C38.0563 63.3863 38.4615 64.3646 38.4615 65.3846C38.4615 66.4047 38.0563 67.383 37.335 68.1043C36.6137 68.8256 35.6354 69.2308 34.6154 69.2308C33.5953 69.2308 32.617 68.8256 31.8957 68.1043C31.1744 67.383 30.7692 66.4047 30.7692 65.3846ZM19.2308 61.5385C18.2107 61.5385 17.2324 61.9437 16.5111 62.665C15.7898 63.3863 15.3846 64.3646 15.3846 65.3846C15.3846 66.4047 15.7898 67.383 16.5111 68.1043C17.2324 68.8256 18.2107 69.2308 19.2308 69.2308C20.2508 69.2308 21.2291 68.8256 21.9504 68.1043C22.6717 67.383 23.0769 66.4047 23.0769 65.3846C23.0769 64.3646 22.6717 63.3863 21.9504 62.665C21.2291 61.9437 20.2508 61.5385 19.2308 61.5385ZM15.3846 80.7692C15.3846 79.7492 15.7898 78.7709 16.5111 78.0496C17.2324 77.3283 18.2107 76.9231 19.2308 76.9231C20.2508 76.9231 21.2291 77.3283 21.9504 78.0496C22.6717 78.7709 23.0769 79.7492 23.0769 80.7692C23.0769 81.7893 22.6717 82.7676 21.9504 83.4889C21.2291 84.2102 20.2508 84.6154 19.2308 84.6154C18.2107 84.6154 17.2324 84.2102 16.5111 83.4889C15.7898 82.7676 15.3846 81.7893 15.3846 80.7692ZM34.6154 76.9231C33.5953 76.9231 32.617 77.3283 31.8957 78.0496C31.1744 78.7709 30.7692 79.7492 30.7692 80.7692C30.7692 81.7893 31.1744 82.7676 31.8957 83.4889C32.617 84.2102 33.5953 84.6154 34.6154 84.6154C35.6354 84.6154 36.6137 84.2102 37.335 83.4889C38.0563 82.7676 38.4615 81.7893 38.4615 80.7692C38.4615 79.7492 38.0563 78.7709 37.335 78.0496C36.6137 77.3283 35.6354 76.9231 34.6154 76.9231ZM46.1538 80.7692C46.1538 79.7492 46.5591 78.7709 47.2804 78.0496C48.0017 77.3283 48.9799 76.9231 50 76.9231C51.0201 76.9231 51.9983 77.3283 52.7196 78.0496C53.4409 78.7709 53.8462 79.7492 53.8462 80.7692C53.8462 81.7893 53.4409 82.7676 52.7196 83.4889C51.9983 84.2102 51.0201 84.6154 50 84.6154C48.9799 84.6154 48.0017 84.2102 47.2804 83.4889C46.5591 82.7676 46.1538 81.7893 46.1538 80.7692ZM65.3846 76.9231C64.3646 76.9231 63.3863 77.3283 62.665 78.0496C61.9437 78.7709 61.5385 79.7492 61.5385 80.7692C61.5385 81.7893 61.9437 82.7676 62.665 83.4889C63.3863 84.2102 64.3646 84.6154 65.3846 84.6154C66.4047 84.6154 67.383 84.2102 68.1043 83.4889C68.8256 82.7676 69.2308 81.7893 69.2308 80.7692C69.2308 79.7492 68.8256 78.7709 68.1043 78.0496C67.383 77.3283 66.4047 76.9231 65.3846 76.9231Z" fill="#2B4F8A"/>
</svg>
