<svg width="94" height="100" viewBox="0 0 94 100" fill="none" xmlns="http://www.w3.org/2000/svg">
<path d="M81.25 48.4863C83.2031 49.821 84.9447 51.3346 86.4746 53.0273C88.0046 54.7201 89.3229 56.5755 90.4297 58.5938C91.5365 60.612 92.3503 62.7441 92.8711 64.9902C93.3919 67.2363 93.6849 69.5312 93.75 71.875C93.75 75.7487 93.0176 79.3945 91.5527 82.8125C90.0879 86.2305 88.0697 89.209 85.498 91.748C82.9264 94.2871 79.9479 96.2891 76.5625 97.7539C73.1771 99.2188 69.5312 99.9674 65.625 100C62.6628 100 59.7982 99.5605 57.0312 98.6816C54.2643 97.8027 51.7253 96.5332 49.4141 94.873C47.1029 93.2129 45.0521 91.2272 43.2617 88.916C41.4714 86.6048 40.0879 84.0495 39.1113 81.25H0V6.25H12.5V0H18.75V6.25H62.5V0H68.75V6.25H81.25V48.4863ZM6.25 12.5V25H75V12.5H68.75V18.75H62.5V12.5H18.75V18.75H12.5V12.5H6.25ZM37.6465 75C37.5488 73.9909 37.5 72.9492 37.5 71.875C37.5 69.0755 37.8906 66.3574 38.6719 63.7207C39.4531 61.084 40.6413 58.5938 42.2363 56.25H37.5V50H43.75V54.1992C45.0846 52.5391 46.5658 51.0742 48.1934 49.8047C49.821 48.5352 51.5788 47.4447 53.4668 46.5332C55.3548 45.6217 57.3242 44.9382 59.375 44.4824C61.4258 44.0267 63.5091 43.7826 65.625 43.75C68.8802 43.75 72.0052 44.2871 75 45.3613V31.25H6.25V75H37.6465ZM65.625 93.75C68.6523 93.75 71.4844 93.1803 74.1211 92.041C76.7578 90.9017 79.069 89.3392 81.0547 87.3535C83.0404 85.3678 84.6029 83.0566 85.7422 80.4199C86.8815 77.7832 87.4674 74.9349 87.5 71.875C87.5 68.8477 86.9303 66.0156 85.791 63.3789C84.6517 60.7422 83.0892 58.431 81.1035 56.4453C79.1178 54.4596 76.8066 52.8971 74.1699 51.7578C71.5332 50.6185 68.6849 50.0326 65.625 50C62.5977 50 59.7656 50.5697 57.1289 51.709C54.4922 52.8483 52.181 54.4108 50.1953 56.3965C48.2096 58.3822 46.6471 60.6934 45.5078 63.3301C44.3685 65.9668 43.7826 68.8151 43.75 71.875C43.75 74.9023 44.3197 77.7344 45.459 80.3711C46.5983 83.0078 48.1608 85.319 50.1465 87.3047C52.1322 89.2904 54.4434 90.8529 57.0801 91.9922C59.7168 93.1315 62.5651 93.7174 65.625 93.75ZM68.75 68.75H78.125V75H62.5V56.25H68.75V68.75ZM12.5 50H18.75V56.25H12.5V50ZM25 50H31.25V56.25H25V50ZM25 37.5H31.25V43.75H25V37.5ZM12.5 62.5H18.75V68.75H12.5V62.5ZM25 62.5H31.25V68.75H25V62.5ZM43.75 43.75H37.5V37.5H43.75V43.75ZM56.25 43.75H50V37.5H56.25V43.75ZM68.75 43.75H62.5V37.5H68.75V43.75Z" fill="#2B4F8A"/>
</svg>
