<svg width="100" height="100" viewBox="0 0 100 100" fill="none" xmlns="http://www.w3.org/2000/svg">
<path d="M50 0C77.615 0 100 22.385 100 50C100 77.615 77.615 100 50 100C22.385 100 0 77.615 0 50C0 22.385 22.385 0 50 0ZM50 10C39.3913 10 29.2172 14.2143 21.7157 21.7157C14.2143 29.2172 10 39.3913 10 50C10 60.6087 14.2143 70.7828 21.7157 78.2843C29.2172 85.7857 39.3913 90 50 90C60.6087 90 70.7828 85.7857 78.2843 78.2843C85.7857 70.7828 90 60.6087 90 50C90 39.3913 85.7857 29.2172 78.2843 21.7157C70.7828 14.2143 60.6087 10 50 10ZM50 20C51.2247 20.0002 52.4067 20.4498 53.3219 21.2636C54.237 22.0774 54.8217 23.1987 54.965 24.415L55 25V47.93L68.535 61.465C69.4317 62.3648 69.9524 63.5722 69.9911 64.8419C70.0299 66.1117 69.5839 67.3486 68.7438 68.3014C67.9036 69.2542 66.7322 69.8515 65.4676 69.972C64.203 70.0925 62.94 69.7271 61.935 68.95L61.465 68.535L46.465 53.535C45.6879 52.7572 45.1888 51.745 45.045 50.655L45 50V25C45 23.6739 45.5268 22.4021 46.4645 21.4645C47.4021 20.5268 48.6739 20 50 20Z" fill="#2B4F8A"/>
</svg>
