<svg width="92" height="80" viewBox="0 0 92 80" fill="none" xmlns="http://www.w3.org/2000/svg">
<path fill-rule="evenodd" clip-rule="evenodd" d="M20.9102 8.45888C20.9102 8.7662 21.0463 9.00228 21.3513 9.04045C24.9092 9.48564 48.9667 9.18446 62.2561 8.94668C62.8998 8.93515 63.4923 9.27472 63.813 9.83305L80.6684 39.1738C80.9809 39.7182 80.9812 40.3875 80.669 40.9321L64.0227 69.959C63.708 70.508 63.1234 70.8464 62.4908 70.8464H28.7706C28.1409 70.8464 27.5587 70.5111 27.2429 69.9663L14.0595 47.2297C13.3769 46.0524 14.2263 44.5779 15.5872 44.5779H21.2348C21.8551 44.5779 22.43 44.9035 22.749 45.4352L32.316 61.38C32.635 61.912 33.2098 62.2374 33.8303 62.2374H56.781C57.7563 62.2374 58.547 61.4469 58.547 60.4714V55.1736C58.547 54.1983 57.7563 53.4076 56.781 53.4076H38.929C38.297 53.4076 37.7132 53.0699 37.3982 52.522L34.3519 47.2241C33.6749 46.0469 34.5248 44.5779 35.8828 44.5779H67.9981C68.6369 44.5779 69.2259 44.2331 69.5382 43.6759L71.0762 40.9345C71.3826 40.3882 71.3768 39.7206 71.0609 39.1798L59.0582 18.6328C58.7417 18.0908 58.1611 17.7576 57.5333 17.7576H33.8429C33.2157 17.7576 32.6356 18.0902 32.3189 18.6314L22.7461 34.9848C22.4293 35.5261 21.8492 35.8585 21.2221 35.8585H3.2527C2.63482 35.8585 2.06187 36.1814 1.74193 36.7101L0.25518 39.1666C-0.07603 39.7138 -0.0854416 40.3972 0.230576 40.9533L21.731 78.7901C22.0427 79.3384 22.6231 79.679 23.254 79.6834L67.997 80C68.6363 80.0046 69.2281 79.6631 69.5444 79.1075L91.2669 40.9349C91.5777 40.3886 91.5749 39.7184 91.2592 39.1749L69.2076 1.19112C68.8939 0.650574 68.3175 0.316182 67.6926 0.311851L22.6883 4.33059e-05C21.7083 -0.00674699 20.9102 0.785861 20.9102 1.76595V8.45888ZM37.5114 27.8186C37.8242 27.2625 38.4127 26.9184 39.0507 26.9184H52.1282C52.7542 26.9184 53.3334 27.2499 53.6507 27.7899L56.7631 33.0877C57.4547 34.2649 56.606 35.7481 55.2407 35.7481H36.0706C34.7199 35.7481 33.8692 34.2936 34.5314 33.1164L37.5114 27.8186Z" fill="url(#paint0_linear_51_29)" fill-opacity="0.65"/>
<defs>
<linearGradient id="paint0_linear_51_29" x1="45.7489" y1="1.42051e-10" x2="45.7489" y2="80" gradientUnits="userSpaceOnUse">
<stop stop-color="#835DD7"/>
<stop offset="0.99" stop-color="#6230B3"/>
</linearGradient>
</defs>
</svg>
