<svg width="112" height="100" viewBox="0 0 112 100" fill="none" xmlns="http://www.w3.org/2000/svg">
<path d="M0 49.6419C0 51.9244 1.80568 53.304 4.04147 53.304C5.42109 53.304 6.51464 52.6385 7.46617 51.687L53.8761 9.41386C54.3975 8.89042 54.9697 8.69971 55.5864 8.69971C56.1586 8.69971 56.682 8.89042 57.2501 9.41386L103.613 51.687C104.612 52.6385 105.705 53.304 107.038 53.304C109.272 53.304 111.08 51.9244 111.08 49.6419C111.08 48.2156 110.556 47.3128 109.653 46.5033L93.1993 31.5263V3.42267C93.1993 1.33093 91.8684 0 89.7766 0H83.548C81.503 0 80.0767 1.33093 80.0767 3.42267V19.5906L61.2449 2.37578C59.5812 0.807482 57.5362 0.0486927 55.5398 0.0486927C53.5414 0.0486927 51.545 0.809511 49.8326 2.37781L1.42628 46.5033C0.570107 47.3128 0 48.2156 0 49.6419ZM13.5994 89.5372C13.5994 96.1472 17.5942 100 24.2975 100H43.5574V66.1892C43.5574 64.0021 45.0303 62.5779 47.2174 62.5779H64.0041C66.1912 62.5779 67.6175 64.0021 67.6175 66.1892V100H86.8287C93.532 100 97.4802 96.1472 97.4802 89.5372V54.7303L57.1081 18.353C56.5846 17.8782 56.0145 17.6409 55.4444 17.6409C54.921 17.6409 54.3975 17.8782 53.8274 18.4017L13.5994 54.9676V89.5372Z" fill="#2B4F8A"/>
</svg>
