<svg width="77" height="100" viewBox="0 0 77 100" fill="none" xmlns="http://www.w3.org/2000/svg">
<path d="M38.0952 76.1905C40.6211 76.1905 43.0435 75.1871 44.8296 73.401C46.6156 71.615 47.619 69.1925 47.619 66.6667C47.619 64.1408 46.6156 61.7184 44.8296 59.9323C43.0435 58.1463 40.6211 57.1429 38.0952 57.1429C35.5694 57.1429 33.147 58.1463 31.3609 59.9323C29.5748 61.7184 28.5714 64.1408 28.5714 66.6667C28.5714 69.1925 29.5748 71.615 31.3609 73.401C33.147 75.1871 35.5694 76.1905 38.0952 76.1905ZM66.6667 33.3333C69.1925 33.3333 71.615 34.3367 73.401 36.1228C75.1871 37.9089 76.1905 40.3313 76.1905 42.8571V90.4762C76.1905 93.0021 75.1871 95.4245 73.401 97.2105C71.615 98.9966 69.1925 100 66.6667 100H9.52381C6.99794 100 4.57552 98.9966 2.78946 97.2105C1.0034 95.4245 0 93.0021 0 90.4762V42.8571C0 40.3313 1.0034 37.9089 2.78946 36.1228C4.57552 34.3367 6.99794 33.3333 9.52381 33.3333H14.2857V23.8095C14.2857 17.4948 16.7942 11.4388 21.2594 6.97365C25.7245 2.5085 31.7806 0 38.0952 0C41.2219 0 44.318 0.615852 47.2067 1.81239C50.0955 3.00893 52.7202 4.76273 54.9311 6.97365C57.142 9.18457 58.8958 11.8093 60.0924 14.698C61.2889 17.5867 61.9048 20.6828 61.9048 23.8095V33.3333H66.6667ZM38.0952 9.52381C34.3064 9.52381 30.6728 11.0289 27.9937 13.708C25.3146 16.3871 23.8095 20.0207 23.8095 23.8095V33.3333H52.381V23.8095C52.381 20.0207 50.8759 16.3871 48.1968 13.708C45.5177 11.0289 41.884 9.52381 38.0952 9.52381Z" fill="#2B4F8A"/>
</svg>
