<svg width="134" height="100" viewBox="0 0 134 100" fill="none" xmlns="http://www.w3.org/2000/svg">
<path d="M0 16.6667C0 12.2464 1.75595 8.00716 4.88155 4.88155C8.00716 1.75595 12.2464 0 16.6667 0H116.667C121.087 0 125.326 1.75595 128.452 4.88155C131.577 8.00716 133.333 12.2464 133.333 16.6667V83.3333C133.333 87.7536 131.577 91.9928 128.452 95.1184C125.326 98.244 121.087 100 116.667 100H16.6667C12.2464 100 8.00716 98.244 4.88155 95.1184C1.75595 91.9928 0 87.7536 0 83.3333V16.6667ZM16.6667 8.33333C14.4565 8.33333 12.3369 9.21131 10.7741 10.7741C9.21131 12.3369 8.33333 14.4565 8.33333 16.6667V18.475L66.6667 53.475L125 18.475V16.6667C125 14.4565 124.122 12.3369 122.559 10.7741C120.996 9.21131 118.877 8.33333 116.667 8.33333H16.6667ZM125 28.1917L85.7667 51.7333L125 75.875V28.1917ZM124.717 85.4917L77.7167 56.5667L66.6667 63.1917L55.6167 56.5667L8.61667 85.4833C9.09022 87.2566 10.136 88.824 11.5916 89.9421C13.0472 91.0602 14.8312 91.6664 16.6667 91.6667H116.667C118.501 91.6669 120.284 91.0619 121.74 89.9454C123.195 88.8289 124.242 87.2634 124.717 85.4917ZM8.33333 75.875L47.5667 51.7333L8.33333 28.1917V75.875Z" fill="#C6E5FF"/>
</svg>
