<svg width="106" height="100" viewBox="0 0 106 100" fill="none" xmlns="http://www.w3.org/2000/svg">
<path fill-rule="evenodd" clip-rule="evenodd" d="M13.4215 4.28801C19.9998 -2.25241 30.832 -1.09027 36.34 6.27176L43.1615 15.3743C47.6479 21.3634 47.2479 29.7308 41.9237 35.0226L40.6372 36.309C40.492 36.8492 40.4771 37.4161 40.594 37.9631C40.9345 40.1684 42.7777 44.8386 50.4965 52.5141C58.2153 60.1897 62.9179 62.0275 65.1557 62.3734C65.719 62.4932 66.3028 62.4765 66.8584 62.3248L69.0637 60.1302C73.7988 55.4276 81.0635 54.5465 86.9228 57.7303L97.247 63.3518C106.095 68.1517 108.328 80.1731 101.085 87.3784L93.4038 95.0107C90.9822 97.416 87.7282 99.4214 83.7608 99.7943C73.9771 100.708 51.183 99.5403 27.2213 75.7191C4.85952 53.4817 0.567703 34.0875 0.0217672 24.5309C-0.248498 19.6985 2.03254 15.6121 4.9406 12.7257L13.4215 4.28801ZM29.8536 11.1311C27.1132 7.47173 22.0105 7.17985 19.1349 10.0393L10.6486 18.4715C8.86485 20.2445 8.01081 22.2012 8.11891 24.0714C8.55134 31.6659 12.0107 49.1629 32.9401 69.9733C54.8964 91.7999 75.1717 92.4539 83.0094 91.7188C84.6094 91.5729 86.1985 90.7405 87.685 89.2648L95.3605 81.6271C98.4848 78.5245 97.7983 72.8705 93.3768 70.4706L83.0527 64.8545C80.1987 63.3085 76.8582 63.8166 74.7825 65.8815L72.3231 68.3301L69.4583 65.4544C72.3231 68.3301 72.3177 68.3355 72.3123 68.3355L72.3069 68.3463L72.2907 68.3625L72.2529 68.3949L72.1718 68.4706C71.942 68.6804 71.6962 68.8719 71.4367 69.0436C71.0042 69.33 70.4313 69.649 69.7124 69.9138C68.2529 70.4598 66.3178 70.7516 63.9287 70.3841C59.2423 69.6652 53.0316 66.4706 44.7777 58.2654C36.5292 50.0601 33.3076 43.8873 32.5833 39.2063C32.2104 36.8171 32.5077 34.882 33.059 33.4226C33.3647 32.6024 33.799 31.8361 34.3455 31.1524L34.5184 30.9632L34.5941 30.8821L34.6265 30.8497L34.6427 30.8335L34.6536 30.8227L36.2103 29.2767C38.5238 26.9687 38.8481 23.1471 36.6697 20.2337L29.8536 11.1311Z" fill="#2B4F8A"/>
</svg>
