<svg width="100" height="100" viewBox="0 0 100 100" fill="none" xmlns="http://www.w3.org/2000/svg">
<path d="M99.941 75.5397C99.0495 82.3149 95.7221 88.5339 90.5804 93.0352C85.4388 97.5365 78.8344 100.012 72.0007 100C32.3004 100 4.52436e-05 67.6996 4.52436e-05 27.9993C-0.0122048 21.1656 2.4635 14.5612 6.96478 9.41956C11.4661 4.27787 17.6851 0.950531 24.4603 0.0589888C26.1736 -0.150209 27.9086 0.2003 29.4063 1.05819C30.904 1.91608 32.0841 3.23534 32.7704 4.81903L43.3305 28.3943V28.4543C43.8559 29.6665 44.0729 30.9901 43.9621 32.3067C43.8513 33.6233 43.4161 34.8919 42.6955 35.9993C42.6055 36.1343 42.5105 36.2593 42.4105 36.3843L32.0004 48.7245C35.7454 56.3345 43.7055 64.2246 51.4155 67.9796L63.5857 57.6245C63.7051 57.524 63.8303 57.4305 63.9607 57.3445C65.0671 56.6066 66.3402 56.1561 67.6645 56.0338C68.9889 55.9116 70.3229 56.1215 71.5457 56.6445L71.6107 56.6745L95.166 67.2296C96.7524 67.9135 98.0749 69.0926 98.9357 70.5905C99.7964 72.0884 100.149 73.8247 99.941 75.5397Z" fill="#2B4F8A"/>
</svg>
