<svg width="59" height="100" viewBox="0 0 59 100" fill="none" xmlns="http://www.w3.org/2000/svg">
<path fill-rule="evenodd" clip-rule="evenodd" d="M0 91.6682C0.000351882 93.3161 0.4893 94.927 1.40504 96.2971C2.32077 97.6673 3.62218 98.7351 5.14473 99.3657C6.66729 99.9963 8.34262 100.161 9.95895 99.84C11.5753 99.5186 13.06 98.7252 14.2255 97.56L55.8937 55.8919C57.456 54.3291 58.3337 52.2098 58.3337 50C58.3337 47.7902 57.456 45.6709 55.8937 44.1081L14.2255 2.43998C13.06 1.27486 11.5753 0.481442 9.95895 0.160034C8.34262 -0.161374 6.66729 0.00365948 5.14473 0.634266C3.62218 1.26487 2.32077 2.33274 1.40504 3.70287C0.4893 5.073 0.000351882 6.68388 0 8.33186V91.6682Z" fill="#C6E5FF"/>
</svg>
