<svg width="96" height="100" viewBox="0 0 96 100" fill="none" xmlns="http://www.w3.org/2000/svg">
<path fill-rule="evenodd" clip-rule="evenodd" d="M81.228 81.5866C80.5657 81.4977 79.9324 81.4066 79.3191 81.3089C65.8568 79.1689 64.5035 74.3822 62.7479 70.7133C61.3213 70.0977 60.6213 69.6022 59.8902 67.0622C59.5746 65.9777 59.0279 61.1644 59.259 59.2888C60.3657 58.2511 61.2057 55.6155 61.5702 54.391C62.5524 51.1155 62.7902 50.3199 63.7257 45.9555C63.8591 45.3333 64.2124 45.0799 64.4991 44.9733C65.3702 44.6577 65.5702 43.9577 65.8546 43.4399C66.5279 42.2533 65.9502 41.7199 67.0013 38.8244C68.3435 35.531 68.5524 32.1399 67.5346 31.1666C66.8435 30.551 66.4235 31.011 66.0835 31.1355C65.8568 31.2244 66.0324 30.6577 66.2368 29.851C67.0435 26.5332 67.0479 23.7221 67.2657 20.3221C67.4413 17.5688 67.2568 15.0577 66.9124 13.4999C66.5879 13.1777 65.7502 9.56655 64.7902 7.45543C63.1502 3.82876 58.2346 3.26654 56.5501 2.53987C52.5413 0.862092 47.5279 -1.41124 41.5857 1.15543C38.9412 2.29543 35.419 2.40654 31.5857 6.71988C30.679 7.73321 29.0612 6.8621 27.2546 10.8088C25.4212 14.6754 25.3234 17.2221 25.7412 19.9866L25.6146 19.9932C25.6146 19.9932 25.6612 26.6088 26.4723 29.9266C26.6723 30.7355 26.8434 31.2977 26.6212 31.2132C26.2834 31.0888 25.819 30.6888 25.1279 31.3066C24.1057 32.2799 24.6479 35.531 25.9901 38.8244C27.0479 41.7199 26.3434 42.5821 27.4679 44.1066C27.8679 44.6488 28.2412 44.9355 28.6723 45.1177C28.9612 45.2333 29.3679 45.2688 29.5568 45.8733C30.7946 50.3622 31.0235 51.7399 32.3101 54.411C32.8657 55.5644 33.4901 58.451 34.6412 59.5711C34.8301 61.1511 34.6346 65.7044 34.3857 67.0622C33.9857 69.1977 33.2368 69.8155 31.2257 70.7133C30.1323 74.2688 27.2323 77.4866 15.1034 81.2066C14.6901 81.3311 14.2657 81.4622 13.8345 81.5866C13.6034 81.6644 9.49676 85.2066 1.5123 92.2155C0.833151 92.8118 0.351897 93.6008 0.132707 94.4776C-0.0864831 95.3543 -0.0331916 96.277 0.285476 97.1227C0.604144 97.9684 1.17304 98.6968 1.91632 99.2109C2.65959 99.725 3.54191 100 4.44564 100H90.9058C91.8174 100 92.7071 99.7205 93.4543 99.1982C94.2015 98.6758 94.77 97.9363 95.0827 97.08C95.3954 96.2237 95.4372 95.2919 95.2024 94.411C94.9676 93.5301 94.4676 92.7427 93.7702 92.1555L81.228 81.5866Z" fill="#2B4F8A"/>
</svg>
