<svg width="90" height="100" viewBox="0 0 90 100" fill="none" xmlns="http://www.w3.org/2000/svg">
<path fill-rule="evenodd" clip-rule="evenodd" d="M45 55C56.98 55 67.875 58.47 75.89 63.36C79.89 65.8 83.31 68.68 85.78 71.81C88.21 74.885 90 78.565 90 82.5C90 86.725 87.945 90.055 84.985 92.43C82.185 94.68 78.49 96.17 74.565 97.21C66.675 99.295 56.145 100 45 100C33.855 100 23.325 99.3 15.435 97.21C11.51 96.17 7.815 94.68 5.015 92.43C2.05 90.05 0 86.725 0 82.5C0 78.565 1.79 74.885 4.22 71.805C6.69 68.68 10.105 65.805 14.11 63.355C22.125 58.475 33.025 55 45 55ZM45 65C34.885 65 25.785 67.95 19.32 71.895C16.085 73.865 13.645 76.005 12.07 78.005C10.45 80.055 10 81.605 10 82.5C10 83.11 10.185 83.755 11.275 84.63C12.52 85.63 14.685 86.665 17.995 87.54C24.585 89.29 34.055 90 45 90C55.95 90 65.415 89.285 72 87.54C75.315 86.665 77.48 85.63 78.725 84.63C79.815 83.755 80 83.11 80 82.5C80 81.6 79.55 80.055 77.935 78.005C76.355 76.005 73.915 73.865 70.68 71.895C64.215 67.945 55.115 65 45 65ZM45 0C51.6304 0 57.9893 2.63392 62.6777 7.32233C67.3661 12.0107 70 18.3696 70 25C70 31.6304 67.3661 37.9893 62.6777 42.6777C57.9893 47.3661 51.6304 50 45 50C38.3696 50 32.0107 47.3661 27.3223 42.6777C22.6339 37.9893 20 31.6304 20 25C20 18.3696 22.6339 12.0107 27.3223 7.32233C32.0107 2.63392 38.3696 0 45 0ZM45 10C43.0302 10 41.0796 10.388 39.2597 11.1418C37.4399 11.8956 35.7863 13.0005 34.3934 14.3934C33.0005 15.7863 31.8956 17.4399 31.1418 19.2597C30.388 21.0796 30 23.0302 30 25C30 26.9698 30.388 28.9204 31.1418 30.7403C31.8956 32.5601 33.0005 34.2137 34.3934 35.6066C35.7863 36.9995 37.4399 38.1044 39.2597 38.8582C41.0796 39.612 43.0302 40 45 40C48.9782 40 52.7936 38.4196 55.6066 35.6066C58.4196 32.7936 60 28.9782 60 25C60 21.0218 58.4196 17.2064 55.6066 14.3934C52.7936 11.5804 48.9782 10 45 10Z" fill="#2B4F8A"/>
</svg>
